<?xml version="1.0" standalone="no"?>
<!DOCTYPE svg PUBLIC "-//W3C//DTD SVG 20010904//EN"
 "http://www.w3.org/TR/2001/REC-SVG-20010904/DTD/svg10.dtd">
<svg version="1.0" xmlns="http://www.w3.org/2000/svg"
 width="370.000000pt" height="370.000000pt" viewBox="0 0 370.000000 370.000000"
 preserveAspectRatio="xMidYMid meet">
<metadata>
Created by potrace 1.11, written by Peter Selinger 2001-2013
</metadata>
<g transform="translate(0.000000,370.000000) scale(0.100000,-0.100000)"
fill="#000000" stroke="none">
<path d="M2345 3631 c-3 -5 -37 -98 -75 -206 -76 -213 -95 -255 -112 -255 -6
0 -30 15 -53 34 -53 44 -87 51 -99 20 -7 -17 -36 -447 -36 -529 0 -42 2 -47
14 -35 8 8 46 104 85 213 39 108 78 211 86 227 14 27 18 29 38 19 12 -7 38
-25 57 -41 42 -34 67 -36 80 -5 8 18 40 456 40 543 0 24 -14 32 -25 15z"/>
<path d="M1280 3437 c0 -2 41 -80 90 -173 50 -93 89 -176 88 -183 -2 -9 -23
-19 -52 -25 -93 -20 -90 -27 94 -211 91 -91 166 -160 168 -153 1 7 -36 85 -83
173 -47 88 -85 168 -85 177 0 11 10 20 28 23 58 12 77 21 80 38 4 20 -291 337
-314 337 -8 0 -14 -2 -14 -3z"/>
<path d="M690 3124 c-107 -46 -159 -174 -115 -281 10 -24 134 -157 358 -382
228 -231 353 -364 374 -401 52 -90 53 -86 -26 -82 -101 6 -162 -17 -231 -87
-41 -41 -60 -70 -73 -110 -20 -63 -21 -141 -3 -193 13 -36 12 -38 -20 -69 -41
-39 -70 -99 -79 -162 -6 -38 -13 -51 -34 -62 -38 -19 -99 -89 -122 -139 -13
-28 -19 -64 -19 -117 0 -132 9 -144 392 -525 345 -342 377 -369 498 -410 83
-28 244 -26 332 4 88 31 171 85 235 156 53 58 53 58 53 125 l0 68 82 16 c106
21 194 65 270 135 76 71 120 139 153 236 24 72 25 84 24 293 -2 248 11 351 66
519 58 178 136 314 271 476 79 95 94 133 75 191 -18 55 -74 97 -129 97 -49 0
-183 -39 -259 -75 -186 -88 -323 -225 -422 -423 -46 -92 -80 -118 -141 -106
-24 5 -171 148 -667 645 -434 435 -650 645 -678 659 -49 24 -116 25 -165 4z"/>
<path d="M2680 2715 c-74 -52 -142 -94 -151 -95 -11 0 -20 14 -28 44 -12 47
-30 62 -53 43 -12 -9 -194 -233 -241 -295 -28 -37 16 -14 142 72 77 53 146 96
154 96 9 0 19 -18 26 -44 11 -43 28 -60 48 -48 16 10 253 305 253 314 0 16
-17 6 -150 -87z"/>
</g>
</svg>
